<svg width="144" height="131" viewBox="0 0 144 131" fill="none" xmlns="http://www.w3.org/2000/svg">
<path d="M93.3301 2.51929C96.0606 2.61322 98.8528 3.0529 101.787 4.0271L101.788 4.02612C110.541 6.92209 116.099 12.2824 121.033 18.5115L122.013 19.7683L122.455 20.3523C130.468 31.0508 133.533 42.094 135.251 48.7419L135.926 51.3494L135.928 51.3562C138.183 59.918 139.193 64.8161 139.516 81.0251V81.0261C139.629 86.7985 139.334 91.9785 138.486 96.1638C137.842 99.3463 136.818 102.261 135.156 104.375C137.157 106.84 138.247 109.47 138.783 110.429L138.787 110.436C139.325 111.404 140.325 113.395 140.942 115.433C141.248 116.442 141.508 117.614 141.5 118.749C141.492 119.851 141.22 121.374 139.957 122.465L139.947 122.472C139.015 123.269 137.843 123.412 137.174 123.449C136.39 123.492 135.57 123.414 134.858 123.305C133.513 123.1 132.079 122.705 131.358 122.384V122.385C129.911 121.751 128.72 120.976 127.743 120.17C127.485 120.96 127.169 121.8 126.781 122.685L126.774 122.7L126.769 122.715C126.531 123.24 125.925 124.542 124.984 125.721C124.123 126.802 122.457 128.432 120.035 128.306V128.307C117.72 128.195 116.053 126.771 115.057 125.563C114.051 124.344 113.371 122.923 113.114 121.926V121.925C112.312 118.877 111.99 115.971 111.913 113.682C111.875 112.535 111.898 111.521 111.958 110.703C112.005 110.061 112.085 109.367 112.24 108.81L112.312 108.581C112.567 107.804 112.981 106.559 113.709 105.218C113.004 104.621 112.359 103.997 111.767 103.414C111.11 102.767 110.523 102.179 109.879 101.602C108.635 100.488 107.254 99.4907 105.31 98.7468C100.104 96.771 96.3472 98.4906 91.3828 99.7146C90.6853 100.94 89.7682 102.02 88.6113 102.836L88.6104 102.835C86.4697 104.352 84.0096 104.618 81.749 104.318C79.5094 104.021 77.289 103.153 75.3447 102.169C71.4517 100.198 68.131 97.4798 67.1328 96.6619V96.6609C66.5899 96.2212 64.7214 94.6896 63.1143 92.8943C62.3141 92.0005 61.4727 90.9266 60.915 89.8005C60.4004 88.7614 59.8336 87.0771 60.6172 85.3884L60.6211 85.3796C61.2204 84.1008 62.3374 83.415 63.2646 83.0505C64.2103 82.679 65.2598 82.5169 66.2354 82.4607C67.567 82.384 69.0053 82.4949 70.3301 82.7224C69.6697 78.8256 70.0188 75.4907 70.4443 73.2898L65.1953 68.7595C64.1134 69.0528 62.999 69.3377 61.8516 69.6091L61.8213 69.6169L61.792 69.6228L59.7822 70.0457C58.7717 72.9824 57.2808 76.1388 55.0703 79.2283L55.0664 79.2341L55.0615 79.24C53.2459 81.7469 50.2001 86.0016 44.5771 88.198L44.5762 88.197C43.8996 88.4666 41.9114 89.2537 39.6289 89.5818C37.4585 89.8937 34.3042 89.8932 31.9404 87.7693C31.9321 87.7622 31.9236 87.7541 31.9141 87.7458C31.8994 87.7325 31.8837 87.7203 31.8691 87.7068V87.7058C31.3924 87.2821 29.9094 85.8099 29.6172 83.4812V83.4802C29.2676 80.8255 30.6904 78.8019 31.9814 77.3328C32.6462 76.5763 33.4286 75.8029 34.1504 75.075C34.5567 74.6652 34.9586 74.2526 35.3555 73.8289C32.9756 74.7507 30.1039 75.5979 26.79 76.0867H26.7881C19.1612 77.2066 12.9057 75.8155 9.44629 74.7683L5.86816 73.6853L8.23633 70.7917L17.4316 59.5554C14.7257 57.3153 11.1681 53.6158 8.85938 48.114V48.115C7.86748 45.788 4.34777 37.4899 7.84961 28.8093C9.45562 24.78 11.5594 20.3477 15.0654 17.0779V16.9929L15.9824 16.2429C20.1531 12.8337 28.0993 9.10317 38.6006 8.57007L38.6025 8.56909C46.4965 8.17596 52.7659 10.7828 56.3076 12.7166C65.8676 7.22654 74.4268 4.94867 80.1377 3.93726V3.93823C84.491 3.15324 88.831 2.36443 93.3301 2.51929Z" fill="#9D806C" stroke="#EDE9E6" stroke-width="5"/>
<path fill-rule="evenodd" clip-rule="evenodd" d="M23.4494 50.0287C22.6537 50.0287 21.9853 49.4579 21.8579 48.665L21.1258 43.7183C20.9985 42.8298 21.6034 42.037 22.4945 41.9107C23.3858 41.7836 24.1815 42.386 24.3089 43.2744L25.041 48.2212C25.1683 49.1089 24.5634 49.9017 23.6723 50.0287C23.5767 50.0287 23.513 50.0287 23.4494 50.0287Z" fill="#231815"/>
<path fill-rule="evenodd" clip-rule="evenodd" d="M31.4088 46.6032C30.6079 46.6032 29.903 46.0287 29.807 45.1995L29.1662 40.4456C29.0382 39.5523 29.6789 38.7547 30.5438 38.627C31.4409 38.4994 32.2418 39.1374 32.37 39.999L33.0107 44.7528C33.1388 45.6462 32.4981 46.444 31.633 46.5711C31.5689 46.5711 31.5049 46.5711 31.4088 46.5711V46.6032Z" fill="#231815"/>
<path fill-rule="evenodd" clip-rule="evenodd" d="M62.8325 86.4299C63.7266 84.5259 68.42 84.6851 71.3893 85.51C75.6997 86.7153 78.1903 88.1118 79.1158 89.4449C78.6053 87.3504 78.0941 83.828 79.1158 79.8297C79.5947 78.0207 80.457 74.5939 82.1808 74.3085C84.991 73.8639 88.2793 82.2417 88.471 82.7491C92.0149 90.3333 91.0887 98.0125 87.1621 100.773C81.2554 104.962 70.655 96.3305 68.6754 94.712C67.6536 93.8871 61.6511 88.9689 62.8325 86.4299Z" fill="#FBD8BE"/>
<path fill-rule="evenodd" clip-rule="evenodd" d="M0.79653 77.0746C0.446583 77.0746 0.12844 76.8534 0.0329033 76.5051C-0.0943005 76.0941 0.16024 75.651 0.573787 75.5246C1.49642 75.2399 2.48265 74.9238 3.46888 74.5755C5.1232 73.9747 6.74572 73.2468 8.33644 72.4561C7.06386 71.8545 5.79129 71.1902 4.58232 70.463C3.11893 69.6088 1.68736 68.6597 0.319246 67.6471C-0.0306987 67.3938 -0.0943005 66.8878 0.16024 66.5396C0.414782 66.192 0.923734 66.1285 1.27367 66.3819C2.57805 67.3624 3.97796 68.2801 5.37774 69.1021C7.00026 70.0513 8.71819 70.9375 10.4361 71.6647C10.7224 71.7917 10.9134 72.0444 10.9134 72.3605C10.9134 72.6773 10.786 72.9621 10.4997 73.0884C8.40006 74.2594 6.23663 75.2399 4.00976 76.062C2.99159 76.4416 1.97356 76.7585 1.01927 77.0432C0.955533 77.0432 0.860128 77.0746 0.79653 77.0746Z" fill="#231815"/>
<path fill-rule="evenodd" clip-rule="evenodd" d="M12.6777 6.99093C5.60953 11.5942 3.44444 20.8641 7.5834 28.1023C4.5907 31.1499 3.22152 34.6419 3.47626 35.0864C4.14487 36.2928 13.6965 30.9277 22.0064 24.4513C28.6607 19.2768 31.5262 16.3244 34.6782 11.6259C29.8706 4.29255 20.0324 2.22908 12.7095 6.99093H12.6777Z" fill="#F8B62D"/>
<path fill-rule="evenodd" clip-rule="evenodd" d="M121.704 101.551C116.792 103.014 115.324 107.338 114.654 109.373C114.303 110.39 114.017 115.604 115.516 121.296C115.835 122.536 117.525 125.684 120.141 125.811C122.469 125.938 124.032 122.663 124.479 121.677C126.106 117.957 126.297 115.414 126.106 114.206C126.712 115.35 128.37 118.339 132.358 120.087C133.187 120.469 137.207 121.518 138.323 120.564C140.236 118.911 137.589 113.411 136.601 111.63C135.516 109.691 134.017 105.525 129.71 102.792C128.434 101.965 126.042 100.216 121.736 101.519L121.704 101.551Z" fill="#FBD8BE"/>
</svg>
