<svg width="612" height="279" viewBox="0 0 612 279" fill="none" xmlns="http://www.w3.org/2000/svg">
<rect width="612" height="279" fill="#EDE9E6"/>
<rect x="56.85" y="83.85" width="497.3" height="143.3" rx="23.15" fill="#20327E"/>
<rect x="56.85" y="83.85" width="497.3" height="143.3" rx="23.15" stroke="#20327E" stroke-width="1.7"/>
<g clip-path="url(#clip0_279_675)">
<rect x="56" y="71" width="499" height="145" rx="24" fill="#EDE9E6"/>
<path d="M118.206 119V111.371L120.984 110.932V100.068L118.206 99.6289V92H132.216L137.876 102.371L143.484 92H157.511V99.6289L154.734 100.068V110.932L157.511 111.371V119H143.484V105.834L137.876 115.537L132.216 105.834V119H118.206ZM158.435 119V111.986L160.544 111.582V101.615L158.435 101.211V94.25H180.162V103.25H177.753C176.968 102.664 176.007 102.195 174.871 101.844C173.734 101.492 172.486 101.316 171.126 101.316V105.131L175.996 104.094V109.104L171.126 108.049V111.934C172.498 111.934 173.751 111.764 174.888 111.424C176.037 111.084 176.992 110.609 177.753 110H180.162V119H158.435ZM181.578 119V111.986L183.687 111.582V101.58L181.578 101.176V94.25H194.269L202.724 107.592V101.615L200.615 101.176V94.25H211.179V101.176L209.07 101.58V111.582L211.179 111.986V119H198.488L190.033 106.01V111.582L192.16 111.969V119H181.578ZM216.937 119V111.986L219.047 111.582V100.789C218.472 100.789 217.892 100.883 217.306 101.07C216.732 101.258 216.252 101.533 215.865 101.896C215.478 102.26 215.285 102.711 215.285 103.25H212.349V94.25H236.326V103.25H233.39C233.39 102.711 233.191 102.26 232.793 101.896C232.406 101.533 231.925 101.258 231.351 101.07C230.777 100.883 230.203 100.789 229.629 100.789V111.582L231.738 111.986V119H216.937ZM251.752 119.316C248.752 119.316 246.144 118.859 243.929 117.945C241.715 117.031 239.998 115.613 238.779 113.691C237.572 111.77 236.969 109.303 236.969 106.291C236.969 103.338 237.59 100.93 238.832 99.0664C240.074 97.1914 241.802 95.8086 244.017 94.918C246.244 94.0273 248.822 93.582 251.752 93.582C254.681 93.582 257.26 94.0273 259.486 94.918C261.713 95.8086 263.447 97.1914 264.689 99.0664C265.943 100.93 266.57 103.338 266.57 106.291C266.57 109.303 265.967 111.77 264.76 113.691C263.552 115.613 261.842 117.031 259.627 117.945C257.412 118.859 254.787 119.316 251.752 119.316ZM251.752 111.652C253.392 111.652 254.511 111.16 255.109 110.176C255.707 109.191 256.006 107.896 256.006 106.291C256.006 104.686 255.701 103.414 255.092 102.477C254.494 101.539 253.381 101.07 251.752 101.07C250.158 101.07 249.056 101.527 248.447 102.441C247.849 103.355 247.551 104.609 247.551 106.203C247.551 107.832 247.832 109.15 248.394 110.158C248.969 111.154 250.088 111.652 251.752 111.652ZM266.967 119V111.986L269.076 111.582V101.58L266.967 101.176V94.25H281.363C282.887 94.25 284.369 94.3027 285.81 94.4082C287.252 94.5137 288.57 94.748 289.765 95.1113C290.961 95.4746 291.951 96.0254 292.736 96.7637C293.533 97.502 294.043 98.5039 294.265 99.7695C294.383 100.426 294.441 101.146 294.441 101.932C294.441 103.256 294.224 104.328 293.791 105.148C293.369 105.969 292.783 106.631 292.033 107.135C291.283 107.639 290.41 108.084 289.414 108.471C290 109.631 290.779 110.768 291.752 111.881C292.724 112.982 293.621 114.002 294.441 114.939V119H283.93C283.215 117.664 282.517 116.27 281.838 114.816C281.17 113.352 280.637 111.787 280.238 110.123H279.658V119H266.967ZM279.658 105.359C281.006 105.359 282.049 105.166 282.787 104.779C283.525 104.393 283.894 103.525 283.894 102.178C283.894 100.83 283.519 99.957 282.769 99.5586C282.031 99.1602 280.994 98.9609 279.658 98.9609V105.359ZM305.236 107.486V98.4863H316.486V107.486H305.236ZM328.108 119V111.371L330.885 110.932V100.068L328.108 99.6289V92H342.117L347.777 102.371L353.385 92H367.412V99.6289L364.635 100.068V110.932L367.412 111.371V119H353.385V105.834L347.777 115.537L342.117 105.834V119H328.108ZM368.336 119V111.986L370.446 111.582V101.615L368.336 101.211V94.25H390.063V103.25H387.655C386.869 102.664 385.908 102.195 384.772 101.844C383.635 101.492 382.387 101.316 381.028 101.316V105.131L385.897 104.094V109.104L381.028 108.049V111.934C382.399 111.934 383.653 111.764 384.789 111.424C385.938 111.084 386.893 110.609 387.655 110H390.063V119H368.336ZM391.479 119V111.986L393.588 111.582V101.58L391.479 101.176V94.25H404.17L412.625 107.592V101.615L410.516 101.176V94.25H421.08V101.176L418.971 101.58V111.582L421.08 111.986V119H408.389L399.934 106.01V111.582L402.061 111.969V119H391.479ZM426.838 119V111.986L428.948 111.582V100.789C428.373 100.789 427.793 100.883 427.207 101.07C426.633 101.258 426.153 101.533 425.766 101.896C425.379 102.26 425.186 102.711 425.186 103.25H422.25V94.25H446.227V103.25H443.291C443.291 102.711 443.092 102.26 442.694 101.896C442.307 101.533 441.827 101.258 441.252 101.07C440.678 100.883 440.104 100.789 439.53 100.789V111.582L441.639 111.986V119H426.838ZM447.432 119V111.986L449.541 111.582V101.615L447.432 101.211V94.25H469.159V103.25H466.75C465.965 102.664 465.004 102.195 463.868 101.844C462.731 101.492 461.483 101.316 460.124 101.316V105.131L464.993 104.094V109.104L460.124 108.049V111.934C461.495 111.934 462.749 111.764 463.885 111.424C465.034 111.084 465.989 110.609 466.75 110H469.159V119H447.432ZM470.575 119V111.986L472.684 111.582V101.615L470.575 101.211V94.25H492.301V103.25H489.893C489.108 102.664 488.147 102.195 487.01 101.844C485.874 101.492 484.626 101.316 483.266 101.316V105.131L488.135 104.094V109.104L483.266 108.049V111.934C484.637 111.934 485.891 111.764 487.028 111.424C488.176 111.084 489.131 110.609 489.893 110H492.301V119H470.575Z" fill="#20327E"/>
<mask id="path-6-outside-1_279_675" maskUnits="userSpaceOnUse" x="143" y="127" width="324" height="70" fill="black">
<rect fill="white" x="143" y="127" width="324" height="70"/>
<path d="M147.381 165.77V152.82C148.991 152.19 150.461 150.65 150.741 146.8H147.381V134.41H188.401V146.8H185.041C185.321 150.58 186.791 152.19 188.401 152.82V165.14C185.391 165.14 180.281 161.78 178.111 158.84L176.641 160.1C178.111 161.5 178.881 162.13 180.281 163.11C176.711 164.65 173.701 165.42 167.961 165.84C164.251 164.51 160.611 162.34 157.111 158.84L155.641 160.1C156.971 161.43 158.091 162.34 159.981 163.53C156.551 165.49 151.091 165.84 147.381 165.77ZM206.041 165.49H190.011V134.41H206.041V140.78H210.661V157.3H206.041V165.49ZM170.341 146.8H165.441C165.791 149.18 166.911 150.93 167.961 151.91C169.081 150.79 170.061 149.18 170.341 146.8ZM148.781 183.27V167.73H206.041V191.88H190.011V183.27H148.781ZM233.475 166.54V152.33C237.325 151.63 240.195 148.76 240.195 141.97V134.41H261.195V141.97C261.195 146.38 262.315 149.11 264.205 150.72V137.84C266.515 137.84 268.895 137.91 271.205 137.84V134.41H292.835V171.93C287.935 173.96 276.595 175.5 271.205 175.15V153.87C270.085 153.87 269.035 153.94 267.985 153.94V166.54C260.145 166.54 253.425 165.21 247.125 158.56L245.655 159.82C246.635 160.94 247.895 161.99 249.295 162.97C244.605 165.21 239.495 166.54 233.475 166.54ZM233.895 168.5H254.195C254.195 174.24 258.605 177.04 265.815 177.32C274.635 177.6 285.835 177.04 292.835 174.24V189.71C284.645 191.95 275.265 192.86 264.135 192.86C243.345 192.86 231.515 187.05 233.895 168.5ZM316.77 165.77V152.82C318.38 152.19 319.85 150.65 320.13 146.8H316.77V134.41H357.79V146.8H354.43C354.71 150.58 356.18 152.19 357.79 152.82V165.14C354.78 165.14 349.67 161.78 347.5 158.84L346.03 160.1C347.5 161.5 348.27 162.13 349.67 163.11C346.1 164.65 343.09 165.42 337.35 165.84C333.64 164.51 330 162.34 326.5 158.84L325.03 160.1C326.36 161.43 327.48 162.34 329.37 163.53C325.94 165.49 320.48 165.84 316.77 165.77ZM375.43 165.49H359.4V134.41H375.43V140.78H380.05V157.3H375.43V165.49ZM339.73 146.8H334.83C335.18 149.18 336.3 150.93 337.35 151.91C338.47 150.79 339.45 149.18 339.73 146.8ZM318.17 183.27V167.73H375.43V191.88H359.4V183.27H318.17ZM462.295 147.08H402.935V135.11H419.385C419.945 137.42 423.515 140.43 426.385 140.57L427.295 139.17C423.445 138.54 420.855 135.95 420.855 133.57V131.82H444.375V135.11H462.295V147.08ZM402.305 158.84C402.305 151.77 411.685 148.2 432.615 148.2C453.545 148.2 462.925 151.77 462.925 158.84C462.925 165.91 453.545 169.48 432.615 169.48C411.685 169.48 402.305 165.91 402.305 158.84ZM424.285 156.18L423.515 158.28C428.905 159.96 436.675 160.59 441.925 160.59V158.49C436.675 158.49 429.535 157.65 424.285 156.18ZM443.325 191.88H421.765V182.64H402.865V170.6H462.225V182.64H443.325V191.88Z"/>
</mask>
<path d="M147.381 165.77V152.82C148.991 152.19 150.461 150.65 150.741 146.8H147.381V134.41H188.401V146.8H185.041C185.321 150.58 186.791 152.19 188.401 152.82V165.14C185.391 165.14 180.281 161.78 178.111 158.84L176.641 160.1C178.111 161.5 178.881 162.13 180.281 163.11C176.711 164.65 173.701 165.42 167.961 165.84C164.251 164.51 160.611 162.34 157.111 158.84L155.641 160.1C156.971 161.43 158.091 162.34 159.981 163.53C156.551 165.49 151.091 165.84 147.381 165.77ZM206.041 165.49H190.011V134.41H206.041V140.78H210.661V157.3H206.041V165.49ZM170.341 146.8H165.441C165.791 149.18 166.911 150.93 167.961 151.91C169.081 150.79 170.061 149.18 170.341 146.8ZM148.781 183.27V167.73H206.041V191.88H190.011V183.27H148.781ZM233.475 166.54V152.33C237.325 151.63 240.195 148.76 240.195 141.97V134.41H261.195V141.97C261.195 146.38 262.315 149.11 264.205 150.72V137.84C266.515 137.84 268.895 137.91 271.205 137.84V134.41H292.835V171.93C287.935 173.96 276.595 175.5 271.205 175.15V153.87C270.085 153.87 269.035 153.94 267.985 153.94V166.54C260.145 166.54 253.425 165.21 247.125 158.56L245.655 159.82C246.635 160.94 247.895 161.99 249.295 162.97C244.605 165.21 239.495 166.54 233.475 166.54ZM233.895 168.5H254.195C254.195 174.24 258.605 177.04 265.815 177.32C274.635 177.6 285.835 177.04 292.835 174.24V189.71C284.645 191.95 275.265 192.86 264.135 192.86C243.345 192.86 231.515 187.05 233.895 168.5ZM316.77 165.77V152.82C318.38 152.19 319.85 150.65 320.13 146.8H316.77V134.41H357.79V146.8H354.43C354.71 150.58 356.18 152.19 357.79 152.82V165.14C354.78 165.14 349.67 161.78 347.5 158.84L346.03 160.1C347.5 161.5 348.27 162.13 349.67 163.11C346.1 164.65 343.09 165.42 337.35 165.84C333.64 164.51 330 162.34 326.5 158.84L325.03 160.1C326.36 161.43 327.48 162.34 329.37 163.53C325.94 165.49 320.48 165.84 316.77 165.77ZM375.43 165.49H359.4V134.41H375.43V140.78H380.05V157.3H375.43V165.49ZM339.73 146.8H334.83C335.18 149.18 336.3 150.93 337.35 151.91C338.47 150.79 339.45 149.18 339.73 146.8ZM318.17 183.27V167.73H375.43V191.88H359.4V183.27H318.17ZM462.295 147.08H402.935V135.11H419.385C419.945 137.42 423.515 140.43 426.385 140.57L427.295 139.17C423.445 138.54 420.855 135.95 420.855 133.57V131.82H444.375V135.11H462.295V147.08ZM402.305 158.84C402.305 151.77 411.685 148.2 432.615 148.2C453.545 148.2 462.925 151.77 462.925 158.84C462.925 165.91 453.545 169.48 432.615 169.48C411.685 169.48 402.305 165.91 402.305 158.84ZM424.285 156.18L423.515 158.28C428.905 159.96 436.675 160.59 441.925 160.59V158.49C436.675 158.49 429.535 157.65 424.285 156.18ZM443.325 191.88H421.765V182.64H402.865V170.6H462.225V182.64H443.325V191.88Z" fill="#EDE9E6"/>
<path d="M147.381 165.77H143.381V169.695L147.305 169.769L147.381 165.77ZM147.381 152.82L145.923 149.095L143.381 150.09V152.82H147.381ZM150.741 146.8L154.73 147.09L155.042 142.8H150.741V146.8ZM147.381 146.8H143.381V150.8H147.381V146.8ZM147.381 134.41V130.41H143.381V134.41H147.381ZM188.401 134.41H192.401V130.41H188.401V134.41ZM188.401 146.8V150.8H192.401V146.8H188.401ZM185.041 146.8V142.8H180.734L181.052 147.095L185.041 146.8ZM188.401 152.82H192.401V150.09L189.859 149.095L188.401 152.82ZM188.401 165.14V169.14H192.401V165.14H188.401ZM178.111 158.84L181.329 156.465L178.774 153.003L175.508 155.803L178.111 158.84ZM176.641 160.1L174.038 157.063L170.677 159.944L173.882 162.997L176.641 160.1ZM180.281 163.11L181.865 166.783L188.447 163.944L182.575 159.833L180.281 163.11ZM167.961 165.84L166.611 169.605L167.408 169.891L168.253 169.829L167.961 165.84ZM157.111 158.84L159.939 156.012L157.32 153.392L154.508 155.803L157.111 158.84ZM155.641 160.1L153.038 157.063L149.758 159.874L152.813 162.928L155.641 160.1ZM159.981 163.53L161.965 167.003L167.752 163.696L162.112 160.145L159.981 163.53ZM206.041 165.49V169.49H210.041V165.49H206.041ZM190.011 165.49H186.011V169.49H190.011V165.49ZM190.011 134.41V130.41H186.011V134.41H190.011ZM206.041 134.41H210.041V130.41H206.041V134.41ZM206.041 140.78H202.041V144.78H206.041V140.78ZM210.661 140.78H214.661V136.78H210.661V140.78ZM210.661 157.3V161.3H214.661V157.3H210.661ZM206.041 157.3V153.3H202.041V157.3H206.041ZM170.341 146.8L174.314 147.267L174.839 142.8H170.341V146.8ZM165.441 146.8V142.8H160.81L161.484 147.382L165.441 146.8ZM167.961 151.91L165.232 154.834L168.057 157.471L170.789 154.738L167.961 151.91ZM148.781 183.27H144.781V187.27H148.781V183.27ZM148.781 167.73V163.73H144.781V167.73H148.781ZM206.041 167.73H210.041V163.73H206.041V167.73ZM206.041 191.88V195.88H210.041V191.88H206.041ZM190.011 191.88H186.011V195.88H190.011V191.88ZM190.011 183.27H194.011V179.27H190.011V183.27ZM147.381 165.77H151.381V152.82H147.381H143.381V165.77H147.381ZM147.381 152.82L148.839 156.545C150.347 155.955 151.825 154.902 152.93 153.171C153.995 151.505 154.558 149.457 154.73 147.09L150.741 146.8L146.751 146.51C146.644 147.993 146.332 148.64 146.189 148.864C146.087 149.023 146.025 149.055 145.923 149.095L147.381 152.82ZM150.741 146.8V142.8H147.381V146.8V150.8H150.741V146.8ZM147.381 146.8H151.381V134.41H147.381H143.381V146.8H147.381ZM147.381 134.41V138.41H188.401V134.41V130.41H147.381V134.41ZM188.401 134.41H184.401V146.8H188.401H192.401V134.41H188.401ZM188.401 146.8V142.8H185.041V146.8V150.8H188.401V146.8ZM185.041 146.8L181.052 147.095C181.225 149.437 181.792 151.471 182.842 153.131C183.928 154.846 185.392 155.938 186.943 156.545L188.401 152.82L189.859 149.095C189.8 149.072 189.724 149.044 189.602 148.852C189.445 148.604 189.137 147.943 189.03 146.505L185.041 146.8ZM188.401 152.82H184.401V165.14H188.401H192.401V152.82H188.401ZM188.401 165.14V161.14C188.06 161.14 186.83 160.81 185.066 159.704C183.428 158.676 182.033 157.418 181.329 156.465L178.111 158.84L174.893 161.215C176.359 163.202 178.604 165.094 180.815 166.481C182.902 167.79 185.732 169.14 188.401 169.14V165.14ZM178.111 158.84L175.508 155.803L174.038 157.063L176.641 160.1L179.244 163.137L180.714 161.877L178.111 158.84ZM176.641 160.1L173.882 162.997C175.481 164.519 176.405 165.28 177.987 166.387L180.281 163.11L182.575 159.833C181.357 158.98 180.741 158.481 179.4 157.203L176.641 160.1ZM180.281 163.11L178.697 159.437C175.611 160.768 173.052 161.457 167.669 161.851L167.961 165.84L168.253 169.829C174.35 169.383 177.811 168.532 181.865 166.783L180.281 163.11ZM167.961 165.84L169.311 162.075C166.154 160.943 163.019 159.092 159.939 156.012L157.111 158.84L154.283 161.668C158.202 165.588 162.348 168.077 166.611 169.605L167.961 165.84ZM157.111 158.84L154.508 155.803L153.038 157.063L155.641 160.1L158.244 163.137L159.714 161.877L157.111 158.84ZM155.641 160.1L152.813 162.928C154.361 164.477 155.717 165.572 157.85 166.915L159.981 163.53L162.112 160.145C160.465 159.108 159.581 158.383 158.469 157.272L155.641 160.1ZM159.981 163.53L157.996 160.057C156.912 160.677 155.258 161.159 153.218 161.452C151.235 161.736 149.168 161.803 147.456 161.771L147.381 165.77L147.305 169.769C149.303 169.807 151.822 169.734 154.354 169.371C156.829 169.016 159.62 168.343 161.965 167.003L159.981 163.53ZM206.041 165.49V161.49H190.011V165.49V169.49H206.041V165.49ZM190.011 165.49H194.011V134.41H190.011H186.011V165.49H190.011ZM190.011 134.41V138.41H206.041V134.41V130.41H190.011V134.41ZM206.041 134.41H202.041V140.78H206.041H210.041V134.41H206.041ZM206.041 140.78V144.78H210.661V140.78V136.78H206.041V140.78ZM210.661 140.78H206.661V157.3H210.661H214.661V140.78H210.661ZM210.661 157.3V153.3H206.041V157.3V161.3H210.661V157.3ZM206.041 157.3H202.041V165.49H206.041H210.041V157.3H206.041ZM170.341 146.8V142.8H165.441V146.8V150.8H170.341V146.8ZM165.441 146.8L161.484 147.382C161.969 150.687 163.539 153.254 165.232 154.834L167.961 151.91L170.69 148.986C170.283 148.606 169.612 147.673 169.398 146.218L165.441 146.8ZM167.961 151.91L170.789 154.738C172.495 153.033 173.92 150.609 174.314 147.267L170.341 146.8L166.368 146.333C166.201 147.751 165.667 148.547 165.133 149.082L167.961 151.91ZM148.781 183.27H152.781V167.73H148.781H144.781V183.27H148.781ZM148.781 167.73V171.73H206.041V167.73V163.73H148.781V167.73ZM206.041 167.73H202.041V191.88H206.041H210.041V167.73H206.041ZM206.041 191.88V187.88H190.011V191.88V195.88H206.041V191.88ZM190.011 191.88H194.011V183.27H190.011H186.011V191.88H190.011ZM190.011 183.27V179.27H148.781V183.27V187.27H190.011V183.27ZM233.475 166.54H229.475V170.54H233.475V166.54ZM233.475 152.33L232.76 148.395L229.475 148.992V152.33H233.475ZM240.195 134.41V130.41H236.195V134.41H240.195ZM261.195 134.41H265.195V130.41H261.195V134.41ZM264.205 150.72L261.612 153.765L268.205 159.382V150.72H264.205ZM264.205 137.84V133.84H260.205V137.84H264.205ZM271.205 137.84L271.327 141.838L275.205 141.721V137.84H271.205ZM271.205 134.41V130.41H267.205V134.41H271.205ZM292.835 134.41H296.835V130.41H292.835V134.41ZM292.835 171.93L294.366 175.625L296.835 174.603V171.93H292.835ZM271.205 175.15H267.205V178.899L270.946 179.142L271.205 175.15ZM271.205 153.87H275.205V149.87H271.205V153.87ZM267.985 153.94V149.94H263.985V153.94H267.985ZM267.985 166.54V170.54H271.985V166.54H267.985ZM247.125 158.56L250.029 155.809L247.412 153.046L244.522 155.523L247.125 158.56ZM245.655 159.82L243.052 156.783L239.984 159.413L242.645 162.454L245.655 159.82ZM249.295 162.97L251.019 166.579L257.206 163.625L251.589 159.693L249.295 162.97ZM233.895 168.5V164.5H230.376L229.928 167.991L233.895 168.5ZM254.195 168.5H258.195V164.5H254.195V168.5ZM265.815 177.32L265.66 181.317L265.674 181.318L265.689 181.318L265.815 177.32ZM292.835 174.24H296.835V168.332L291.35 170.526L292.835 174.24ZM292.835 189.71L293.891 193.568L296.835 192.763V189.71H292.835ZM233.475 166.54H237.475V152.33H233.475H229.475V166.54H233.475ZM233.475 152.33L234.191 156.265C236.937 155.766 239.608 154.416 241.518 151.781C243.372 149.224 244.195 145.887 244.195 141.97H240.195H236.195C236.195 144.843 235.584 146.336 235.041 147.086C234.553 147.759 233.864 148.194 232.76 148.395L233.475 152.33ZM240.195 141.97H244.195V134.41H240.195H236.195V141.97H240.195ZM240.195 134.41V138.41H261.195V134.41V130.41H240.195V134.41ZM261.195 134.41H257.195V141.97H261.195H265.195V134.41H261.195ZM261.195 141.97H257.195C257.195 146.992 258.477 151.094 261.612 153.765L264.205 150.72L266.799 147.675C266.154 147.126 265.195 145.768 265.195 141.97H261.195ZM264.205 150.72H268.205V137.84H264.205H260.205V150.72H264.205ZM264.205 137.84V141.84C266.345 141.84 268.946 141.91 271.327 141.838L271.205 137.84L271.084 133.842C268.845 133.91 266.686 133.84 264.205 133.84V137.84ZM271.205 137.84H275.205V134.41H271.205H267.205V137.84H271.205ZM271.205 134.41V138.41H292.835V134.41V130.41H271.205V134.41ZM292.835 134.41H288.835V171.93H292.835H296.835V134.41H292.835ZM292.835 171.93L291.305 168.235C289.332 169.052 285.678 169.89 281.633 170.474C277.621 171.053 273.755 171.307 271.465 171.158L271.205 175.15L270.946 179.142C274.046 179.343 278.545 179.002 282.776 178.391C286.973 177.785 291.439 176.838 294.366 175.625L292.835 171.93ZM271.205 175.15H275.205V153.87H271.205H267.205V175.15H271.205ZM271.205 153.87V149.87C270.57 149.87 269.965 149.89 269.438 149.907C268.891 149.925 268.433 149.94 267.985 149.94V153.94V157.94C268.588 157.94 269.18 157.92 269.7 157.903C270.241 157.885 270.721 157.87 271.205 157.87V153.87ZM267.985 153.94H263.985V166.54H267.985H271.985V153.94H267.985ZM267.985 166.54V162.54C260.732 162.54 255.282 161.354 250.029 155.809L247.125 158.56L244.222 161.311C251.569 169.066 259.559 170.54 267.985 170.54V166.54ZM247.125 158.56L244.522 155.523L243.052 156.783L245.655 159.82L248.259 162.857L249.729 161.597L247.125 158.56ZM245.655 159.82L242.645 162.454C243.91 163.9 245.447 165.159 247.002 166.247L249.295 162.97L251.589 159.693C250.344 158.821 249.361 157.98 248.666 157.186L245.655 159.82ZM249.295 162.97L247.572 159.361C243.384 161.361 238.86 162.54 233.475 162.54V166.54V170.54C240.131 170.54 245.827 169.059 251.019 166.579L249.295 162.97ZM233.895 168.5V172.5H254.195V168.5V164.5H233.895V168.5ZM254.195 168.5H250.195C250.195 172.553 251.835 175.935 254.954 178.196C257.86 180.303 261.668 181.162 265.66 181.317L265.815 177.32L265.971 173.323C262.753 173.198 260.751 172.517 259.649 171.719C258.761 171.075 258.195 170.187 258.195 168.5H254.195ZM265.815 177.32L265.689 181.318C274.546 181.599 286.484 181.089 294.321 177.954L292.835 174.24L291.35 170.526C285.187 172.991 274.725 173.601 265.942 173.322L265.815 177.32ZM292.835 174.24H288.835V189.71H292.835H296.835V174.24H292.835ZM292.835 189.71L291.78 185.852C284.061 187.963 275.071 188.86 264.135 188.86V192.86V196.86C275.46 196.86 285.23 195.937 293.891 193.568L292.835 189.71ZM264.135 192.86V188.86C253.892 188.86 246.837 187.383 242.658 184.386C238.949 181.726 236.797 177.317 237.863 169.009L233.895 168.5L229.928 167.991C228.614 178.233 231.187 186.004 237.996 190.887C244.334 195.432 253.589 196.86 264.135 196.86V192.86ZM316.77 165.77H312.77V169.695L316.695 169.769L316.77 165.77ZM316.77 152.82L315.312 149.095L312.77 150.09V152.82H316.77ZM320.13 146.8L324.119 147.09L324.431 142.8H320.13V146.8ZM316.77 146.8H312.77V150.8H316.77V146.8ZM316.77 134.41V130.41H312.77V134.41H316.77ZM357.79 134.41H361.79V130.41H357.79V134.41ZM357.79 146.8V150.8H361.79V146.8H357.79ZM354.43 146.8V142.8H350.123L350.441 147.095L354.43 146.8ZM357.79 152.82H361.79V150.09L359.248 149.095L357.79 152.82ZM357.79 165.14V169.14H361.79V165.14H357.79ZM347.5 158.84L350.718 156.465L348.163 153.003L344.897 155.803L347.5 158.84ZM346.03 160.1L343.427 157.063L340.066 159.944L343.271 162.997L346.03 160.1ZM349.67 163.11L351.254 166.783L357.836 163.944L351.964 159.833L349.67 163.11ZM337.35 165.84L336 169.605L336.797 169.891L337.642 169.829L337.35 165.84ZM326.5 158.84L329.328 156.012L326.709 153.392L323.897 155.803L326.5 158.84ZM325.03 160.1L322.427 157.063L319.147 159.874L322.202 162.928L325.03 160.1ZM329.37 163.53L331.355 167.003L337.141 163.696L331.501 160.145L329.37 163.53ZM375.43 165.49V169.49H379.43V165.49H375.43ZM359.4 165.49H355.4V169.49H359.4V165.49ZM359.4 134.41V130.41H355.4V134.41H359.4ZM375.43 134.41H379.43V130.41H375.43V134.41ZM375.43 140.78H371.43V144.78H375.43V140.78ZM380.05 140.78H384.05V136.78H380.05V140.78ZM380.05 157.3V161.3H384.05V157.3H380.05ZM375.43 157.3V153.3H371.43V157.3H375.43ZM339.73 146.8L343.703 147.267L344.228 142.8H339.73V146.8ZM334.83 146.8V142.8H330.199L330.873 147.382L334.83 146.8ZM337.35 151.91L334.621 154.834L337.446 157.471L340.178 154.738L337.35 151.91ZM318.17 183.27H314.17V187.27H318.17V183.27ZM318.17 167.73V163.73H314.17V167.73H318.17ZM375.43 167.73H379.43V163.73H375.43V167.73ZM375.43 191.88V195.88H379.43V191.88H375.43ZM359.4 191.88H355.4V195.88H359.4V191.88ZM359.4 183.27H363.4V179.27H359.4V183.27ZM316.77 165.77H320.77V152.82H316.77H312.77V165.77H316.77ZM316.77 152.82L318.228 156.545C319.736 155.955 321.214 154.902 322.32 153.171C323.384 151.505 323.947 149.457 324.119 147.09L320.13 146.8L316.141 146.51C316.033 147.993 315.721 148.64 315.578 148.864C315.476 149.023 315.414 149.055 315.312 149.095L316.77 152.82ZM320.13 146.8V142.8H316.77V146.8V150.8H320.13V146.8ZM316.77 146.8H320.77V134.41H316.77H312.77V146.8H316.77ZM316.77 134.41V138.41H357.79V134.41V130.41H316.77V134.41ZM357.79 134.41H353.79V146.8H357.79H361.79V134.41H357.79ZM357.79 146.8V142.8H354.43V146.8V150.8H357.79V146.8ZM354.43 146.8L350.441 147.095C350.614 149.437 351.181 151.471 352.232 153.131C353.317 154.846 354.781 155.938 356.332 156.545L357.79 152.82L359.248 149.095C359.189 149.072 359.113 149.044 358.991 148.852C358.834 148.604 358.526 147.943 358.419 146.505L354.43 146.8ZM357.79 152.82H353.79V165.14H357.79H361.79V152.82H357.79ZM357.79 165.14V161.14C357.449 161.14 356.219 160.81 354.456 159.704C352.817 158.676 351.422 157.418 350.718 156.465L347.5 158.84L344.282 161.215C345.748 163.202 347.993 165.094 350.204 166.481C352.291 167.79 355.121 169.14 357.79 169.14V165.14ZM347.5 158.84L344.897 155.803L343.427 157.063L346.03 160.1L348.633 163.137L350.103 161.877L347.5 158.84ZM346.03 160.1L343.271 162.997C344.87 164.519 345.794 165.28 347.376 166.387L349.67 163.11L351.964 159.833C350.746 158.98 350.13 158.481 348.789 157.203L346.03 160.1ZM349.67 163.11L348.086 159.437C345 160.768 342.441 161.457 337.058 161.851L337.35 165.84L337.642 169.829C343.739 169.383 347.2 168.532 351.254 166.783L349.67 163.11ZM337.35 165.84L338.7 162.075C335.543 160.943 332.409 159.092 329.328 156.012L326.5 158.84L323.672 161.668C327.591 165.588 331.737 168.077 336 169.605L337.35 165.84ZM326.5 158.84L323.897 155.803L322.427 157.063L325.03 160.1L327.633 163.137L329.103 161.877L326.5 158.84ZM325.03 160.1L322.202 162.928C323.75 164.477 325.106 165.572 327.239 166.915L329.37 163.53L331.501 160.145C329.854 159.108 328.97 158.383 327.858 157.272L325.03 160.1ZM329.37 163.53L327.385 160.057C326.301 160.677 324.647 161.159 322.607 161.452C320.624 161.736 318.558 161.803 316.845 161.771L316.77 165.77L316.695 169.769C318.692 169.807 321.211 169.734 323.743 169.371C326.218 169.016 329.009 168.343 331.355 167.003L329.37 163.53ZM375.43 165.49V161.49H359.4V165.49V169.49H375.43V165.49ZM359.4 165.49H363.4V134.41H359.4H355.4V165.49H359.4ZM359.4 134.41V138.41H375.43V134.41V130.41H359.4V134.41ZM375.43 134.41H371.43V140.78H375.43H379.43V134.41H375.43ZM375.43 140.78V144.78H380.05V140.78V136.78H375.43V140.78ZM380.05 140.78H376.05V157.3H380.05H384.05V140.78H380.05ZM380.05 157.3V153.3H375.43V157.3V161.3H380.05V157.3ZM375.43 157.3H371.43V165.49H375.43H379.43V157.3H375.43ZM339.73 146.8V142.8H334.83V146.8V150.8H339.73V146.8ZM334.83 146.8L330.873 147.382C331.359 150.687 332.928 153.254 334.621 154.834L337.35 151.91L340.079 148.986C339.672 148.606 339.001 147.673 338.787 146.218L334.83 146.8ZM337.35 151.91L340.178 154.738C341.884 153.033 343.31 150.609 343.703 147.267L339.73 146.8L335.757 146.333C335.591 147.751 335.056 148.547 334.522 149.082L337.35 151.91ZM318.17 183.27H322.17V167.73H318.17H314.17V183.27H318.17ZM318.17 167.73V171.73H375.43V167.73V163.73H318.17V167.73ZM375.43 167.73H371.43V191.88H375.43H379.43V167.73H375.43ZM375.43 191.88V187.88H359.4V191.88V195.88H375.43V191.88ZM359.4 191.88H363.4V183.27H359.4H355.4V191.88H359.4ZM359.4 183.27V179.27H318.17V183.27V187.27H359.4V183.27ZM462.295 147.08V151.08H466.295V147.08H462.295ZM402.935 147.08H398.935V151.08H402.935V147.08ZM402.935 135.11V131.11H398.935V135.11H402.935ZM419.385 135.11L423.272 134.168L422.531 131.11H419.385V135.11ZM426.385 140.57L426.19 144.565L428.486 144.677L429.738 142.75L426.385 140.57ZM427.295 139.17L430.648 141.35L433.988 136.212L427.94 135.222L427.295 139.17ZM420.855 131.82V127.82H416.855V131.82H420.855ZM444.375 131.82H448.375V127.82H444.375V131.82ZM444.375 135.11H440.375V139.11H444.375V135.11ZM462.295 135.11H466.295V131.11H462.295V135.11ZM424.285 156.18L425.363 152.328L421.802 151.331L420.529 154.803L424.285 156.18ZM423.515 158.28L419.759 156.903L418.312 160.848L422.324 162.099L423.515 158.28ZM441.925 160.59V164.59H445.925V160.59H441.925ZM441.925 158.49H445.925V154.49H441.925V158.49ZM443.325 191.88V195.88H447.325V191.88H443.325ZM421.765 191.88H417.765V195.88H421.765V191.88ZM421.765 182.64H425.765V178.64H421.765V182.64ZM402.865 182.64H398.865V186.64H402.865V182.64ZM402.865 170.6V166.6H398.865V170.6H402.865ZM462.225 170.6H466.225V166.6H462.225V170.6ZM462.225 182.64V186.64H466.225V182.64H462.225ZM443.325 182.64V178.64H439.325V182.64H443.325ZM462.295 147.08V143.08H402.935V147.08V151.08H462.295V147.08ZM402.935 147.08H406.935V135.11H402.935H398.935V147.08H402.935ZM402.935 135.11V139.11H419.385V135.11V131.11H402.935V135.11ZM419.385 135.11L415.497 136.052C416.078 138.447 417.889 140.471 419.517 141.775C421.195 143.12 423.596 144.439 426.19 144.565L426.385 140.57L426.579 136.575C426.303 136.561 425.484 136.305 424.52 135.532C424.088 135.187 423.742 134.825 423.508 134.513C423.251 134.173 423.242 134.045 423.272 134.168L419.385 135.11ZM426.385 140.57L429.738 142.75L430.648 141.35L427.295 139.17L423.941 136.99L423.031 138.39L426.385 140.57ZM427.295 139.17L427.94 135.222C426.721 135.023 425.835 134.532 425.318 134.063C424.753 133.551 424.855 133.31 424.855 133.57H420.855H416.855C416.855 136.21 418.251 138.454 419.944 139.989C421.684 141.568 424.019 142.687 426.649 143.117L427.295 139.17ZM420.855 133.57H424.855V131.82H420.855H416.855V133.57H420.855ZM420.855 131.82V135.82H444.375V131.82V127.82H420.855V131.82ZM444.375 131.82H440.375V135.11H444.375H448.375V131.82H444.375ZM444.375 135.11V139.11H462.295V135.11V131.11H444.375V135.11ZM462.295 135.11H458.295V147.08H462.295H466.295V135.11H462.295ZM402.305 158.84H406.305C406.305 158.056 406.528 157.468 407.059 156.883C407.672 156.208 408.841 155.393 410.959 154.635C415.249 153.099 422.257 152.2 432.615 152.2V148.2V144.2C422.042 144.2 413.896 145.086 408.263 147.103C405.419 148.121 402.935 149.524 401.136 151.506C399.254 153.579 398.305 156.089 398.305 158.84H402.305ZM432.615 148.2V152.2C442.972 152.2 449.981 153.099 454.27 154.635C456.388 155.393 457.557 156.208 458.17 156.883C458.701 157.468 458.925 158.056 458.925 158.84H462.925H466.925C466.925 156.089 465.975 153.579 464.094 151.506C462.294 149.524 459.81 148.121 456.967 147.103C451.334 145.086 443.187 144.2 432.615 144.2V148.2ZM462.925 158.84H458.925C458.925 159.624 458.701 160.212 458.17 160.797C457.557 161.472 456.388 162.287 454.27 163.045C449.981 164.581 442.972 165.48 432.615 165.48V169.48V173.48C443.187 173.48 451.334 172.594 456.967 170.577C459.81 169.559 462.294 168.156 464.094 166.174C465.975 164.101 466.925 161.591 466.925 158.84H462.925ZM432.615 169.48V165.48C422.257 165.48 415.249 164.581 410.959 163.045C408.841 162.287 407.672 161.472 407.059 160.797C406.528 160.212 406.305 159.624 406.305 158.84H402.305H398.305C398.305 161.591 399.254 164.101 401.136 166.174C402.935 168.156 405.419 169.559 408.263 170.577C413.896 172.594 422.042 173.48 432.615 173.48V169.48ZM424.285 156.18L420.529 154.803L419.759 156.903L423.515 158.28L427.27 159.657L428.04 157.557L424.285 156.18ZM423.515 158.28L422.324 162.099C428.276 163.954 436.51 164.59 441.925 164.59V160.59V156.59C436.839 156.59 429.533 155.966 424.705 154.461L423.515 158.28ZM441.925 160.59H445.925V158.49H441.925H437.925V160.59H441.925ZM441.925 158.49V154.49C436.983 154.49 430.212 153.686 425.363 152.328L424.285 156.18L423.206 160.032C428.857 161.614 436.366 162.49 441.925 162.49V158.49ZM443.325 191.88V187.88H421.765V191.88V195.88H443.325V191.88ZM421.765 191.88H425.765V182.64H421.765H417.765V191.88H421.765ZM421.765 182.64V178.64H402.865V182.64V186.64H421.765V182.64ZM402.865 182.64H406.865V170.6H402.865H398.865V182.64H402.865ZM402.865 170.6V174.6H462.225V170.6V166.6H402.865V170.6ZM462.225 170.6H458.225V182.64H462.225H466.225V170.6H462.225ZM462.225 182.64V178.64H443.325V182.64V186.64H462.225V182.64ZM443.325 182.64H439.325V191.88H443.325H447.325V182.64H443.325Z" fill="#20327E" mask="url(#path-6-outside-1_279_675)"/>
</g>
<rect x="56.85" y="71.85" width="497.3" height="143.3" rx="23.15" stroke="#20327E" stroke-width="1.7"/>
<rect x="67" y="36" width="477" height="27" rx="13.5" fill="#20327E"/>
<path d="M206.57 55V51.228C206.902 51.1108 207.275 50.9839 207.69 50.8472C208.11 50.7056 208.533 50.5493 208.957 50.3784C209.382 50.2075 209.773 50.0122 210.129 49.7925C210.486 49.5728 210.774 49.3213 210.994 49.0381C211.213 48.7549 211.323 48.4326 211.323 48.0713C211.323 47.6855 211.213 47.3853 210.994 47.1704C210.774 46.9556 210.474 46.8481 210.093 46.8481C209.78 46.8481 209.512 46.958 209.287 47.1777C209.067 47.3975 208.896 47.6294 208.774 47.8735H206.57V44.5044C207.117 44.2163 207.725 43.9917 208.393 43.8306C209.062 43.6646 209.827 43.5815 210.686 43.5815C211.404 43.5815 212.082 43.6548 212.722 43.8013C213.367 43.9429 213.935 44.1675 214.429 44.4751C214.922 44.7827 215.308 45.1855 215.586 45.6836C215.869 46.1816 216.011 46.7871 216.011 47.5C216.011 48.1055 215.891 48.6475 215.652 49.126C215.417 49.6045 215.098 50.0244 214.692 50.3857C214.292 50.7422 213.84 51.0425 213.337 51.2866C212.834 51.5308 212.317 51.7212 211.785 51.8579H215.945V55H206.57ZM227.604 55.2124C225.675 55.2124 224.174 54.7046 223.1 53.689C222.025 52.6685 221.488 51.1865 221.488 49.2432C221.488 47.9932 221.74 46.9507 222.243 46.1157C222.746 45.2759 223.454 44.6436 224.367 44.2188C225.285 43.7939 226.364 43.5815 227.604 43.5815C228.854 43.5815 229.936 43.7915 230.849 44.2114C231.767 44.6313 232.475 45.2612 232.973 46.1011C233.476 46.9409 233.727 47.9883 233.727 49.2432C233.727 51.1865 233.185 52.6685 232.101 53.689C231.022 54.7046 229.523 55.2124 227.604 55.2124ZM227.604 51.5942C228.014 51.5942 228.322 51.4844 228.527 51.2646C228.732 51.04 228.869 50.7495 228.937 50.3931C229.005 50.0317 229.04 49.6484 229.04 49.2432C229.04 48.8379 229.005 48.4595 228.937 48.1079C228.869 47.7563 228.732 47.4731 228.527 47.2583C228.322 47.0386 228.014 46.9287 227.604 46.9287C227.199 46.9287 226.894 47.0386 226.688 47.2583C226.483 47.4731 226.347 47.7563 226.278 48.1079C226.21 48.4595 226.176 48.8379 226.176 49.2432C226.176 49.6484 226.208 50.0317 226.271 50.3931C226.339 50.7495 226.476 51.04 226.681 51.2646C226.886 51.4844 227.194 51.5942 227.604 51.5942ZM239.293 55V51.228C239.625 51.1108 239.998 50.9839 240.413 50.8472C240.833 50.7056 241.255 50.5493 241.68 50.3784C242.105 50.2075 242.496 50.0122 242.852 49.7925C243.209 49.5728 243.497 49.3213 243.716 49.0381C243.936 48.7549 244.046 48.4326 244.046 48.0713C244.046 47.6855 243.936 47.3853 243.716 47.1704C243.497 46.9556 243.196 46.8481 242.816 46.8481C242.503 46.8481 242.234 46.958 242.01 47.1777C241.79 47.3975 241.619 47.6294 241.497 47.8735H239.293V44.5044C239.839 44.2163 240.447 43.9917 241.116 43.8306C241.785 43.6646 242.549 43.5815 243.409 43.5815C244.127 43.5815 244.805 43.6548 245.445 43.8013C246.089 43.9429 246.658 44.1675 247.151 44.4751C247.645 44.7827 248.03 45.1855 248.309 45.6836C248.592 46.1816 248.734 46.7871 248.734 47.5C248.734 48.1055 248.614 48.6475 248.375 49.126C248.14 49.6045 247.82 50.0244 247.415 50.3857C247.015 50.7422 246.563 51.0425 246.06 51.2866C245.557 51.5308 245.04 51.7212 244.507 51.8579H248.668V55H239.293ZM259.939 55.2124C257.971 55.2124 256.526 54.7339 255.603 53.7769C254.685 52.8149 254.226 51.3501 254.226 49.3823C254.226 47.3804 254.726 45.9131 255.727 44.9805C256.728 44.0479 258.23 43.5815 260.232 43.5815C261.111 43.5815 261.906 43.6646 262.619 43.8306C263.337 43.9917 263.977 44.2163 264.538 44.5044V47.2949H262.334C262.099 47.0703 261.814 46.8677 261.477 46.687C261.14 46.5015 260.761 46.4087 260.342 46.4087C259.985 46.4087 259.712 46.4893 259.521 46.6504C259.331 46.8066 259.196 47.0215 259.118 47.2949C259.04 47.5684 258.987 47.8784 258.957 48.2251C259.289 48.1958 259.604 48.1763 259.902 48.1665C260.205 48.1567 260.515 48.1519 260.832 48.1519C261.428 48.1519 262.007 48.2031 262.568 48.3057C263.134 48.4033 263.645 48.5669 264.099 48.7964C264.553 49.0259 264.912 49.3384 265.175 49.7339C265.444 50.1294 265.578 50.625 265.578 51.2207C265.578 52.0117 265.437 52.666 265.154 53.1836C264.87 53.6963 264.472 54.1016 263.96 54.3994C263.452 54.6973 262.856 54.9072 262.173 55.0293C261.489 55.1514 260.744 55.2124 259.939 55.2124ZM260.122 52.3779C260.566 52.3779 260.891 52.2974 261.096 52.1362C261.301 51.9702 261.404 51.665 261.404 51.2207C261.404 50.8154 261.301 50.5518 261.096 50.4297C260.896 50.3027 260.595 50.2393 260.195 50.2393C259.643 50.2393 259.226 50.2783 258.943 50.3564C258.967 50.6836 259.006 51.0034 259.06 51.3159C259.118 51.6235 259.228 51.8774 259.389 52.0776C259.55 52.2778 259.795 52.3779 260.122 52.3779ZM284.942 55.1318C284.034 55.1318 283.194 55.0732 282.422 54.9561C281.656 54.834 280.953 54.6069 280.313 54.2749V51.3818H282.517C282.723 51.665 282.974 51.9067 283.272 52.1069C283.575 52.3071 283.938 52.4072 284.363 52.4072C284.705 52.4072 284.947 52.3169 285.088 52.1362C285.23 51.9507 285.301 51.6797 285.301 51.3232C284.642 51.2646 284.007 51.1621 283.396 51.0156C282.791 50.8691 282.249 50.6543 281.77 50.3711C281.292 50.083 280.913 49.7021 280.635 49.2285C280.357 48.75 280.218 48.1519 280.218 47.4341C280.218 46.4722 280.43 45.7153 280.855 45.1636C281.285 44.6118 281.873 44.2188 282.62 43.9844C283.372 43.75 284.229 43.6328 285.191 43.6328C286.143 43.6328 286.985 43.7061 287.718 43.8525C288.45 43.999 289.126 44.2163 289.746 44.5044V47.3608H287.542C287.347 47.0825 287.105 46.8433 286.817 46.6431C286.529 46.438 286.18 46.3354 285.769 46.3354C285.428 46.3354 285.181 46.4404 285.03 46.6504C284.878 46.8555 284.803 47.1387 284.803 47.5C285.55 47.5244 286.238 47.6025 286.868 47.7344C287.503 47.8662 288.052 48.0811 288.516 48.3789C288.985 48.6719 289.346 49.0698 289.6 49.5728C289.859 50.0708 289.988 50.7031 289.988 51.4697C289.988 52.168 289.859 52.7539 289.6 53.2275C289.341 53.6963 288.982 54.0698 288.523 54.3481C288.064 54.6265 287.53 54.8267 286.919 54.9487C286.309 55.0708 285.65 55.1318 284.942 55.1318ZM295.62 55V51.8213L296.762 51.6382V47.1118L295.62 46.9287V43.75H301.45L305.2 49.5142V47.1265L304.262 46.9287V43.75H309.155V46.9287L308.012 47.1118V55H303.317L299.575 49.5142V51.6382L300.512 51.814V55H295.62ZM321.993 55.1318C320.685 55.1318 319.574 54.9463 318.661 54.5752C317.748 54.1992 317.052 53.6084 316.573 52.8027C316.095 51.9922 315.856 50.9326 315.856 49.624V47.1118L314.698 46.9287V43.75H321.224V46.9287L320.067 47.1118V49.4775C320.067 50.1855 320.199 50.7153 320.463 51.0669C320.726 51.4185 321.219 51.5942 321.942 51.5942C322.665 51.5942 323.158 51.4185 323.421 51.0669C323.685 50.7153 323.817 50.1855 323.817 49.4775V47.1118L322.66 46.9287V43.75H328.505V46.9287L327.347 47.1118V49.624C327.347 51.4355 326.9 52.8076 326.007 53.7402C325.113 54.668 323.775 55.1318 321.993 55.1318ZM349.545 55.1318C348.251 55.1318 347.131 54.9121 346.183 54.4727C345.241 54.0332 344.511 53.3765 343.993 52.5024C343.481 51.6284 343.224 50.542 343.224 49.2432C343.224 47.9492 343.476 46.8848 343.979 46.0498C344.487 45.2148 345.209 44.5947 346.147 44.1895C347.084 43.7842 348.198 43.5815 349.487 43.5815C350.419 43.5815 351.257 43.6646 351.999 43.8306C352.741 43.9966 353.422 44.2212 354.042 44.5044V48.1519H351.838C351.642 47.7954 351.401 47.4902 351.113 47.2363C350.825 46.9775 350.475 46.8481 350.065 46.8481C349.557 46.8481 349.135 46.9556 348.798 47.1704C348.466 47.3853 348.217 47.6636 348.051 48.0054C347.89 48.3472 347.809 48.7085 347.809 49.0894C347.809 49.7046 347.934 50.1904 348.183 50.5469C348.437 50.9033 348.771 51.1572 349.186 51.3086C349.606 51.4551 350.068 51.5283 350.571 51.5283C351.152 51.5283 351.75 51.4575 352.365 51.3159C352.98 51.1694 353.539 51.001 354.042 50.8105V54.3848C353.349 54.6191 352.638 54.8022 351.911 54.9341C351.183 55.0659 350.395 55.1318 349.545 55.1318ZM366.881 55.1318C365.572 55.1318 364.461 54.9463 363.548 54.5752C362.635 54.1992 361.939 53.6084 361.461 52.8027C360.982 51.9922 360.743 50.9326 360.743 49.624V47.1118L359.586 46.9287V43.75H366.112V46.9287L364.954 47.1118V49.4775C364.954 50.1855 365.086 50.7153 365.35 51.0669C365.614 51.4185 366.107 51.5942 366.829 51.5942C367.552 51.5942 368.045 51.4185 368.309 51.0669C368.573 50.7153 368.704 50.1855 368.704 49.4775V47.1118L367.547 46.9287V43.75H373.392V46.9287L372.235 47.1118V49.624C372.235 51.4355 371.788 52.8076 370.894 53.7402C370.001 54.668 368.663 55.1318 366.881 55.1318ZM378.73 55V51.8213L379.888 51.6382V47.1265L378.73 46.9434V43.75H388.743V47.5H387.563C387.192 47.2412 386.76 47.0215 386.267 46.8408C385.779 46.6553 385.215 46.5625 384.575 46.5625V48.562L386.772 48.0859V50.6787L384.575 50.2026V52.1875C385.205 52.1875 385.764 52.0996 386.252 51.9238C386.741 51.7432 387.163 51.5186 387.52 51.25H388.743V55H378.73ZM394.338 55V51.8213L395.495 51.6382V47.1265L394.338 46.9434V43.75H404.35V47.5H403.171C402.799 47.2412 402.367 47.0215 401.874 46.8408C401.386 46.6553 400.822 46.5625 400.182 46.5625V48.562L402.38 48.0859V50.6787L400.182 50.2026V52.1875C400.812 52.1875 401.371 52.0996 401.859 51.9238C402.348 51.7432 402.77 51.5186 403.127 51.25H404.35V55H394.338Z" fill="#EDE9E6"/>
<rect width="612" height="8" transform="translate(0 247)" fill="#20327E"/>
<rect width="612" height="8" transform="translate(0 255)" fill="#26629C"/>
<rect width="612" height="8" transform="translate(0 263)" fill="#22A1B9"/>
<rect width="612" height="8" transform="translate(0 271)" fill="#4FBE9F"/>
<defs>
<clipPath id="clip0_279_675">
<rect x="56" y="71" width="499" height="145" rx="24" fill="white"/>
</clipPath>
</defs>
</svg>
